<?xml version="1.0" encoding="utf-8"?>
<!-- Logo Docline 2026 — fichier original Illustrator, viewBox natif -->
<svg version="1.1" xmlns="http://www.w3.org/2000/svg" xmlns:xlink="http://www.w3.org/1999/xlink"
     viewBox="0 0 1920 743" xml:space="preserve">
<style>.dl{fill:#3B1772}</style>
<g>
  <g>
    <path class="dl" d="M531.9,205.6c32.3-6.8,66.9,25.8,57.3,58.7c-6.5,30.7-47.4,43.1-71.9,25.2c-16.6-9.9-26.2-30.9-22.1-49.9
      C499,222.3,514.3,207.9,531.9,205.6z M535.1,229.6c-18.4,3.6-21.5,30.7-5.4,39.5c11.5,8.6,30.5,4.7,35.2-9.7
      C571.7,242,551.9,224.5,535.1,229.6z"/>
    <path class="dl" d="M411.4,255.4c19.1-3.2,39.5-0.8,55.6,10.4c22.1,15,35.4,39.5,43.9,64.2c28.9-12.9,59.6-24.7,91.7-23.4
      c25.9,1.3,49.5,18.7,58.5,42.9c7.5,29.9-6.9,59.5-24,83.2c-31.6,43.8-79,80.6-134.2,85.8c-17.7,16.2-44.9,25.6-68,15.4
      c-27.9-12.9-45.3-39.7-59.3-65.8c-22-45.4-33.3-97.2-25.5-147.6C356,289.7,378.5,259.7,411.4,255.4z M417.9,281.1
      c-26.7,3.7-41.3,32.3-42.4,57.1c-1.7,50.1,12.1,101.3,40.3,142.9c11.2,16.8,29.2,35.9,51.3,28.7c-1.5-6.7-11.2-8.2-14.9-13.7
      c-19.1-19.3-31.4-47.1-27.1-74.4c0.8-18.8,14.1-36.5,32.2-41.9c22.7-8.4,51.2,1.1,62.7,22.8c15.7,25.6,11.6,57.7,3.3,85.2
      c23.1-6.2,42.2-21.4,60.6-35.9c22-21.1,43.4-45.9,50.9-76.1c6.3-19.4-10-38.6-28.6-41.6c-39.7-7.1-72.1,19.3-107.5,30.8
      c-16,3.5-30.1-12.9-28.3-28c4-2.7,8.5-0.3,12.8-0.3C476,307.9,451.3,274,417.9,281.1z M467.6,404.6
      c-10.2,2.8-16,13.3-15.1,23.5c-2.4,24.9,13.8,52.3,38.2,59.2c14.7-21.3,16.2-52.2,3.3-75
      C487.1,405.5,477.3,401.9,467.6,404.6z"/>
  </g>
  <g>
    <path class="dl" d="M848.4,446c0,2.5-0.5,4.8-1.4,6.9c-0.9,2.1-2.2,3.9-3.8,5.5c-1.6,1.6-3.5,2.8-5.7,3.7c-2.2,0.9-4.5,1.4-7,1.4
      c-3.4,0-6.3-0.8-9-2.3c-2.6-1.5-4.7-3.5-6.2-6c-5.2,3.2-10.7,5.6-16.7,7.3c-5.9,1.7-12.2,2.6-18.7,2.6
      c-9.4,0-18.2-1.8-26.5-5.4c-8.3-3.6-15.5-8.5-21.8-14.6c-6.2-6.2-11.2-13.4-14.8-21.8c-3.6-8.3-5.5-17.2-5.5-26.6
      c0-9.5,1.8-18.4,5.5-26.6c3.6-8.3,8.6-15.5,14.8-21.8c6.2-6.2,13.5-11.1,21.8-14.7c8.3-3.6,17.1-5.4,26.5-5.4
      c5.9,0,11.7,0.7,17.2,2.2c5.5,1.4,10.7,3.5,15.6,6.2v-39.4c0-2.5,0.5-4.8,1.4-6.9c0.9-2.1,2.2-3.9,3.8-5.5
      c1.6-1.6,3.5-2.8,5.7-3.7c2.2-0.9,4.5-1.4,7-1.4c2.5,0,4.8,0.5,7,1.4c2.2,0.9,4,2.2,5.7,3.7c1.6,1.6,2.9,3.4,3.8,5.5
      c0.9,2.1,1.4,4.4,1.4,6.9V446z M749.9,409.4c1.7,4,4.1,7.4,7,10.4c3,3,6.4,5.3,10.4,7c4,1.7,8.2,2.5,12.7,2.5
      c4.6,0,8.9-0.8,12.9-2.5c4-1.7,7.4-4,10.3-7c2.9-3,5.2-6.4,7-10.4c1.7-4,2.6-8.2,2.6-12.7v-1.3
      c-0.2-4.4-1.2-8.5-2.9-12.4c-1.8-3.8-4.1-7.1-7-9.9c-2.9-2.8-6.3-5-10.3-6.6c-3.9-1.6-8.1-2.4-12.5-2.4
      c-4.5,0-8.7,0.8-12.7,2.5c-4,1.7-7.4,4-10.4,7c-3,3-5.3,6.4-7,10.3c-1.7,3.9-2.6,8.2-2.6,12.8
      C747.3,401.2,748.1,405.4,749.9,409.4z"/>
    <path class="dl" d="M874.7,370.1c3.6-8.3,8.6-15.5,14.8-21.8c6.2-6.2,13.5-11.1,21.8-14.7c8.3-3.6,17.1-5.4,26.5-5.4
      c9.5,0,18.4,1.8,26.6,5.4c8.3,3.6,15.5,8.5,21.7,14.7c6.2,6.2,11.1,13.5,14.6,21.8c3.6,8.3,5.4,17.2,5.4,26.6
      c0,9.4-1.8,18.2-5.4,26.6s-8.5,15.6-14.6,21.8c-6.2,6.2-13.4,11.1-21.7,14.6c-8.3,3.6-17.2,5.4-26.6,5.4
      c-9.4,0-18.2-1.8-26.5-5.4c-8.3-3.6-15.5-8.5-21.8-14.6c-6.2-6.2-11.2-13.4-14.8-21.8c-3.6-8.3-5.5-17.2-5.5-26.6
      C869.2,387.2,871,378.3,874.7,370.1z M907.6,409.4c1.7,4,4.1,7.4,7,10.4c3,3,6.4,5.3,10.4,7c4,1.7,8.2,2.5,12.7,2.5
      c4.6,0,8.9-0.8,12.9-2.5c4-1.7,7.4-4,10.3-7c2.9-3,5.2-6.4,7-10.4c1.7-4,2.6-8.2,2.6-12.7c0-4.6-0.9-8.9-2.6-12.8
      c-1.7-3.9-4-7.4-7-10.3c-2.9-3-6.4-5.3-10.3-7c-4-1.7-8.3-2.5-12.9-2.5c-4.5,0-8.7,0.8-12.7,2.5c-4,1.7-7.4,4-10.4,7
      c-3,3-5.3,6.4-7,10.3c-1.7,3.9-2.6,8.2-2.6,12.8C905,401.2,905.8,405.4,907.6,409.4z"/>
    <path class="dl" d="M1073.1,367.3c-3.7,1.9-6.9,4.4-9.6,7.5c-2.7,3.1-4.8,6.5-6.3,10.3c-1.5,3.8-2.3,7.7-2.3,11.6
      c0,3.8,0.8,7.6,2.3,11.4c1.5,3.8,3.6,7.2,6.3,10.2c2.7,3,5.9,5.5,9.6,7.5c3.7,2,7.7,3,12,3.1c4,0.2,7.8-0.2,11.5-1.1
      c3.6-0.9,7.5-2.9,11.5-6c1.8-1.4,3.8-2.8,5.8-4.2c2.1-1.3,4.3-2.3,6.7-2.8c2.4-0.5,4.9-0.5,7.5,0.1c2.6,0.6,5.4,2.1,8.3,4.6
      c1.9,1.7,3.3,3.7,4.2,5.9c0.9,2.2,1.3,4.5,1.3,7c0,2.4-0.6,4.9-1.7,7.3c-1.1,2.4-2.6,4.7-4.7,6.8c-6,6-13.1,10.6-21.3,13.8
      c-8.2,3.2-16.8,4.7-25.8,4.7c-9.7,0-18.7-1.7-27.2-5.2c-8.5-3.5-15.9-8.3-22.2-14.4c-6.3-6.1-11.3-13.3-15-21.5
      c-3.7-8.3-5.5-17.3-5.5-26.9c0-9.6,1.8-18.6,5.5-27c3.7-8.4,8.7-15.7,15-22c6.3-6.2,13.7-11.1,22.2-14.7s17.5-5.4,27.2-5.4
      c9.1,0,17.7,1.6,25.9,4.7c8.1,3.2,15.2,7.8,21.3,13.8c2.1,2.1,3.7,4.4,4.7,6.9c1.1,2.5,1.6,5,1.7,7.4c0.1,2.4-0.3,4.8-1.3,7
      c-1,2.2-2.4,4.2-4.3,5.9c-2.9,2.5-5.6,4-8.3,4.6c-2.6,0.6-5.1,0.6-7.5,0c-2.4-0.6-4.6-1.5-6.7-2.9c-2.1-1.3-4-2.7-5.8-4.2
      c-3.9-3-7.7-4.9-11.4-5.8c-3.7-0.9-7.5-1.3-11.6-1.2C1080.8,364.3,1076.8,365.3,1073.1,367.3z"/>
    <path class="dl" d="M1198.2,446c0,2.5-0.5,4.8-1.4,6.9c-0.9,2.1-2.2,3.9-3.8,5.5c-1.6,1.6-3.5,2.8-5.7,3.7
      c-2.2,0.9-4.5,1.4-7,1.4c-2.5,0-4.8-0.5-7-1.4c-2.2-0.9-4-2.2-5.7-3.7c-1.6-1.6-2.9-3.4-3.8-5.5c-0.9-2.1-1.4-4.4-1.4-6.9
      V297.2c0-2.5,0.5-4.8,1.4-6.9c0.9-2.1,2.2-3.9,3.8-5.5c1.6-1.6,3.5-2.8,5.7-3.7c2.2-0.9,4.5-1.4,7-1.4c2.5,0,4.8,0.5,7,1.4
      c2.2,0.9,4,2.2,5.7,3.7c1.6,1.6,2.9,3.4,3.8,5.5c0.9,2.1,1.4,4.4,1.4,6.9V446z"/>
    <path class="dl" d="M1227,289.6c1-2.3,2.4-4.3,4.1-6c1.7-1.7,3.8-3.1,6.1-4.1c2.3-1,4.8-1.5,7.4-1.5c2.6,0,5,0.5,7.4,1.5
      c2.3,1,4.4,2.4,6.2,4.1c1.8,1.7,3.2,3.7,4.2,6s1.5,4.8,1.5,7.5c0,2.6-0.5,5.1-1.5,7.4c-1,2.3-2.4,4.4-4.2,6.1
      c-1.8,1.7-3.8,3.1-6.2,4.1c-2.3,1-4.8,1.5-7.4,1.5c-2.6,0-5.1-0.5-7.4-1.5c-2.3-1-4.4-2.4-6.1-4.1c-1.7-1.7-3.1-3.8-4.1-6.1
      c-1-2.3-1.5-4.8-1.5-7.4C1225.5,294.4,1226,291.9,1227,289.6z M1262.6,445.8c0,2.5-0.5,4.8-1.4,6.9c-0.9,2.1-2.2,4-3.8,5.6
      c-1.6,1.6-3.5,2.9-5.7,3.8c-2.2,0.9-4.4,1.4-6.8,1.4c-2.5,0-4.8-0.5-7-1.4c-2.2-0.9-4-2.2-5.7-3.8c-1.6-1.6-2.9-3.5-3.9-5.6
      c-1-2.1-1.4-4.4-1.4-6.9V345.7c0-2.4,0.5-4.7,1.4-6.8c1-2.2,2.2-4,3.9-5.7c1.6-1.6,3.6-2.9,5.8-3.8c2.2-0.9,4.6-1.4,7.1-1.4
      c2.4,0,4.7,0.5,6.8,1.4c2.2,0.9,4,2.2,5.5,3.8c1.5,1.6,2.8,3.5,3.7,5.7c0.9,2.2,1.4,4.4,1.4,6.8V445.8z"/>
    <path class="dl" d="M1309.5,328.1c4,0,7.5,1.2,10.6,3.6c3,2.4,5,5.4,6.1,9c4.8-3.9,9.9-7,15.2-9.2c5.4-2.2,10.9-3.3,16.7-3.3
      c8.4,0,16.2,1.7,23.2,5.2s13,8.2,18.1,14.1c5,6,8.9,13,11.7,21.1c2.8,8.1,4.2,16.7,4.3,25.9v51.8c0,2.5-0.5,4.8-1.4,6.9
      c-1,2.1-2.2,3.9-3.8,5.5c-1.6,1.5-3.5,2.8-5.7,3.7c-2.2,0.9-4.5,1.4-6.9,1.4c-2.4,0-4.7-0.5-6.9-1.4c-2.2-0.9-4-2.1-5.6-3.7
      c-1.6-1.5-2.9-3.4-3.8-5.5c-1-2.1-1.4-4.4-1.4-6.9v-51.7c-0.1-4.4-0.7-8.5-1.9-12.3c-1.2-3.8-2.9-7.1-5.1-9.8
      c-2.2-2.8-4.9-5-8-6.6c-3.2-1.6-6.7-2.4-10.6-2.4c-3.9,0-7.5,0.7-10.8,2.2c-3.3,1.4-6.1,3.4-8.5,6c-2.4,2.6-4.3,5.7-5.7,9.2
      c-1.4,3.5-2.1,7.4-2.2,11.6v53.3c0,2.5-0.5,4.8-1.4,6.9c-0.9,2.1-2.2,4-3.8,5.6c-1.6,1.6-3.5,2.9-5.7,3.8
      c-2.2,0.9-4.4,1.4-6.8,1.4c-2.5,0-4.8-0.5-7-1.4c-2.2-0.9-4-2.2-5.7-3.8c-1.6-1.6-2.9-3.5-3.9-5.6c-1-2.1-1.4-4.4-1.4-6.9
      V345.7c0-2.4,0.5-4.7,1.4-6.8c1-2.2,2.2-4,3.9-5.7c1.6-1.6,3.6-2.9,5.8-3.8C1304.7,328.5,1307.1,328.1,1309.5,328.1z"/>
    <path class="dl" d="M1474.1,412.6c2.8,5.6,6.8,10,12,13.3c5.2,3.3,11,5,17.3,5c2.6,0,4.8-0.2,6.7-0.5c1.9-0.3,3.5-0.8,5-1.3
      c1.4-0.5,2.7-1.2,3.9-1.9c1.1-0.8,2.2-1.6,3.3-2.4c3.2-2.5,6.2-3.9,9.3-4.3c3-0.4,5.9,0,8.5,1c1.8,0.7,3.4,1.7,4.9,3
      c1.4,1.3,2.7,2.9,3.7,4.6c1.1,1.7,1.8,3.6,2.3,5.6c0.5,2,0.6,4,0.3,6.1c-0.3,2.1-1,4.1-2,6.1c-1.1,2-2.6,3.8-4.7,5.5
      c-1.9,1.6-4.1,3.2-6.6,4.7c-2.5,1.5-5.4,2.9-8.7,4.1c-3.3,1.2-7.1,2.2-11.3,2.9c-4.2,0.7-9,1.1-14.5,1.1
      c-9.5,0-18.4-1.8-26.7-5.4c-8.3-3.6-15.6-8.5-21.9-14.6c-6.3-6.2-11.2-13.4-14.9-21.7c-3.6-8.3-5.5-17.2-5.5-26.6
      s1.8-18.4,5.5-26.7c3.6-8.3,8.6-15.6,14.9-21.8c6.3-6.2,13.6-11.1,21.9-14.6c8.3-3.6,17.2-5.4,26.7-5.4
      c9.3,0,18.1,1.7,26.4,5.2c8.3,3.5,15.6,8.3,21.8,14.4c6.2,6.1,11.2,13.3,14.9,21.5c3.7,8.2,5.6,17,5.8,26.4
      c0,5.1-1.6,9.2-4.9,12.3c-3.3,3.1-7.5,4.7-12.6,4.7H1474.1z M1535.7,383.1c-2.5-6.3-6.5-11.4-12.1-15.2
      c-5.6-3.8-12.1-5.7-19.6-5.7c-3.6,0-7.1,0.5-10.3,1.6c-3.3,1.1-6.2,2.5-8.8,4.4c-2.6,1.9-5,4.1-7,6.7
      c-2,2.6-3.6,5.4-4.7,8.3H1535.7z"/>
  </g>
</g>
</svg>
