<?xml version="1.0" encoding="utf-8"?>
<svg version="1.1" xmlns="http://www.w3.org/2000/svg" xmlns:xlink="http://www.w3.org/1999/xlink" x="0px" y="0px" viewBox="0 0 512 512" xml:space="preserve">
<defs>
  <linearGradient id="g1" gradientUnits="userSpaceOnUse" x1="264.5695" y1="128.8515" x2="364.7738" y2="51.9368">
    <stop offset="0" style="stop-color:#3B1772"/>
    <stop offset="0.32" style="stop-color:#363289"/>
    <stop offset="0.81" style="stop-color:#2981CA"/>
    <stop offset="1" style="stop-color:#23A7EA"/>
  </linearGradient>
  <linearGradient id="g2" gradientUnits="userSpaceOnUse" x1="16.0067" y1="332.7123" x2="526.1042" y2="182.815">
    <stop offset="0" style="stop-color:#3B1772"/>
    <stop offset="0.13" style="stop-color:#39227B"/>
    <stop offset="0.36" style="stop-color:#343E92"/>
    <stop offset="0.67" style="stop-color:#2D6CB9"/>
    <stop offset="1" style="stop-color:#23A7EA"/>
  </linearGradient>
</defs>
<path fill="url(#g1)" d="M290.5,38.7c42.2-8.9,87.4,33.7,74.9,76.8c-8.5,40.2-61.9,56.3-94.1,32.9c-21.7-12.9-34.3-40.4-28.9-65.3C247.4,60.5,267.4,41.6,290.5,38.7z M294.6,70c-24.1,4.7-28.1,40.2-7.1,51.6c15.1,11.3,39.9,6.1,46-12.7C342.5,86.3,316.5,63.5,294.6,70z"/>
<path fill="url(#g2)" d="M132.9,103.8c25-4.1,51.6-1.1,72.7,13.6c28.8,19.6,46.3,51.6,57.4,84c37.8-16.9,77.9-32.3,119.9-30.6c33.9,1.6,64.8,24.5,76.5,56.1c9.8,39.1-9,77.8-31.4,108.8C386.7,393,324.7,441.1,252.5,448c-23.2,21.2-58.8,33.5-88.9,20.2c-36.5-16.8-59.2-51.9-77.6-86.1c-28.8-59.4-43.6-127.1-33.3-192.9C60.5,148.6,89.8,109.4,132.9,103.8z M141.3,137.4c-34.9,4.9-54,42.3-55.4,74.6c-2.2,65.6,15.8,132.4,52.6,186.9c14.6,21.9,38.2,47,67.1,37.5c-2-8.7-14.6-10.7-19.5-17.9c-24.9-25.2-41-61.6-35.4-97.3c1-24.6,18.4-47.7,42.1-54.8c29.6-11,67,1.4,82,29.8c20.5,33.5,15.1,75.5,4.3,111.3c30.1-8.1,55.2-27.9,79.2-46.9c28.7-27.6,56.7-60,66.5-99.5c8.2-25.4-13.1-50.5-37.4-54.4c-51.9-9.3-94.3,25.2-140.6,40.3c-20.9,4.6-39.4-16.8-36.9-36.6c5.2-3.5,11.1-0.3,16.8-0.4C217.3,172.5,185,128.2,141.3,137.4z M206.4,298.9c-13.3,3.7-20.9,17.4-19.7,30.8c-3.1,32.5,18.1,68.3,49.9,77.4c19.2-27.9,21.2-68.2,4.3-98C231.8,300.1,219,295.3,206.4,298.9z"/>
</svg>
